# xmcd
#
# Track frame offsets: 
#        150
#        19572
#        29690
#        57735
#        76215
#        97172
#        117842
#        128592
#        141155
#        161855
#        190885
#        207215
#
# Disc length: 2986 seconds
#
# Revision: 3
# Processed by: cddbd v1.5.2PL0 Copyright (c) Steve Scherf et al.
# Submitted via: ExactAudioCopyFreeDBPlugin 1.0
#
DISCID=a90ba80c
DTITLE=John Lee Hooker - Boom Boom (Remastered 2007)
DYEAR=1992
DGENRE=Blues
TTITLE0=Boom Boom
TTITLE1=I'm Bad Like Jesse James
TTITLE2=Same Old Blues Again
TTITLE3=Sugar Mama
TTITLE4=Trick Bag (Shoppin' For My Tombstone)
TTITLE5=Boogie At Russian Hill
TTITLE6=Hittin' The Bottle Again
TTITLE7=Bottle Up And Go
TTITLE8=Thought I Heard
TTITLE9=I Ain't Gonna Suffer No More
TTITLE10=Dimples (Bonus Track)
TTITLE11=Ain't No Love In This House (Bonus Track)
EXTD=
EXTT0=
EXTT1=
EXTT2=
EXTT3=
EXTT4=
EXTT5=
EXTT6=
EXTT7=
EXTT8=
EXTT9=
EXTT10=
EXTT11=
PLAYORDER=
